<?xml version="1.0" encoding="UTF-8"?>
<svg xmlns="http://www.w3.org/2000/svg" viewBox="0 0 1200 720" width="1200" height="720" font-family="'Times New Roman', Times, serif">
  <defs>
    <marker id="arrow" markerWidth="10" markerHeight="10" refX="9" refY="3" orient="auto" markerUnits="strokeWidth">
      <path d="M0,0 L0,6 L9,3 z" fill="#111111"/>
    </marker>
    <marker id="arrowAccent" markerWidth="10" markerHeight="10" refX="9" refY="3" orient="auto" markerUnits="strokeWidth">
      <path d="M0,0 L0,6 L9,3 z" fill="#bf3a2a"/>
    </marker>
    <pattern id="paper" patternUnits="userSpaceOnUse" width="40" height="40">
      <rect width="40" height="40" fill="#faf7f1"/>
      <circle cx="20" cy="20" r="0.6" fill="#d4cfc4"/>
    </pattern>
    <linearGradient id="goldGrad" x1="0%" y1="0%" x2="100%" y2="100%">
      <stop offset="0%" stop-color="#e8c662"/>
      <stop offset="100%" stop-color="#a87f1f"/>
    </linearGradient>
  </defs>

  <rect width="1200" height="720" fill="url(#paper)"/>

  <text x="600" y="48" text-anchor="middle" font-size="26" font-style="italic" fill="#111111">Autocrawl Pipeline Topology</text>
  <line x1="120" y1="60" x2="1080" y2="60" stroke="#111111" stroke-width="0.6"/>
  <text x="600" y="80" text-anchor="middle" font-size="13" fill="#555" letter-spacing="3">SEED to VENDOR PROFILE in seven movements</text>

  <g>
    <rect x="40" y="120" width="160" height="80" fill="#ffffff" stroke="#111111" stroke-width="1.2"/>
    <text x="120" y="148" text-anchor="middle" font-size="14" font-weight="bold" fill="#111">I. SEEDS</text>
    <text x="120" y="168" text-anchor="middle" font-size="11" fill="#555">agentic_seeds.yaml</text>
    <text x="120" y="184" text-anchor="middle" font-size="11" fill="#555">220 KB curated</text>
  </g>

  <g>
    <rect x="240" y="120" width="170" height="80" fill="#ffffff" stroke="#111111" stroke-width="1.2"/>
    <text x="325" y="148" text-anchor="middle" font-size="14" font-weight="bold" fill="#111">II. DISCOVERY</text>
    <text x="325" y="168" text-anchor="middle" font-size="11" fill="#555">SearXNG plus OpenSERP</text>
    <text x="325" y="184" text-anchor="middle" font-size="11" fill="#555">Wikipedia REST</text>
  </g>

  <g>
    <rect x="450" y="120" width="180" height="80" fill="#111111" stroke="#111111"/>
    <text x="540" y="148" text-anchor="middle" font-size="14" font-weight="bold" fill="#faf7f1">III. AGENT</text>
    <text x="540" y="168" text-anchor="middle" font-size="11" fill="#d4cfc4">Browser Use plus Playwright</text>
    <text x="540" y="184" text-anchor="middle" font-size="11" fill="#d4cfc4">qwen3.6:35b reasoning</text>
  </g>

  <g>
    <rect x="670" y="120" width="160" height="80" fill="#ffffff" stroke="#111111" stroke-width="1.2"/>
    <text x="750" y="148" text-anchor="middle" font-size="14" font-weight="bold" fill="#111">IV. EXTRACT</text>
    <text x="750" y="168" text-anchor="middle" font-size="11" fill="#555">Exhibitor list parse</text>
    <text x="750" y="184" text-anchor="middle" font-size="11" fill="#555">PDF VLM OCR fallback</text>
  </g>

  <g>
    <rect x="870" y="120" width="150" height="80" fill="#ffffff" stroke="#111111" stroke-width="1.2"/>
    <text x="945" y="148" text-anchor="middle" font-size="14" font-weight="bold" fill="#111">V. DEDUP</text>
    <text x="945" y="168" text-anchor="middle" font-size="11" fill="#555">Chroma cosine</text>
    <text x="945" y="184" text-anchor="middle" font-size="11" fill="#555">qwen3-embedding</text>
  </g>

  <g>
    <rect x="1040" y="120" width="130" height="80" fill="url(#goldGrad)" stroke="#111111" stroke-width="1.2"/>
    <text x="1105" y="148" text-anchor="middle" font-size="14" font-weight="bold" fill="#111">VI. LEARN</text>
    <text x="1105" y="168" text-anchor="middle" font-size="11" fill="#222">Knowledge Store</text>
    <text x="1105" y="184" text-anchor="middle" font-size="11" fill="#222">Lessons archive</text>
  </g>

  <line x1="200" y1="160" x2="238" y2="160" stroke="#111" stroke-width="1.4" marker-end="url(#arrow)"/>
  <line x1="410" y1="160" x2="448" y2="160" stroke="#111" stroke-width="1.4" marker-end="url(#arrow)"/>
  <line x1="630" y1="160" x2="668" y2="160" stroke="#111" stroke-width="1.4" marker-end="url(#arrow)"/>
  <line x1="830" y1="160" x2="868" y2="160" stroke="#111" stroke-width="1.4" marker-end="url(#arrow)"/>
  <line x1="1020" y1="160" x2="1038" y2="160" stroke="#111" stroke-width="1.4" marker-end="url(#arrow)"/>

  <path d="M 1105 200 Q 1105 270 600 270 Q 95 270 95 200 L 95 200" fill="none" stroke="#bf3a2a" stroke-width="1.4" stroke-dasharray="4,4" marker-end="url(#arrowAccent)"/>
  <text x="600" y="265" text-anchor="middle" font-size="11" font-style="italic" fill="#bf3a2a">self learning feedback loop</text>

  <line x1="120" y1="320" x2="1080" y2="320" stroke="#111111" stroke-width="0.3" stroke-dasharray="2,3"/>

  <g>
    <rect x="120" y="360" width="180" height="80" fill="#ffffff" stroke="#111111" stroke-width="1.2"/>
    <text x="210" y="388" text-anchor="middle" font-size="14" font-weight="bold" fill="#111">VII. ENRICH QUEUE</text>
    <text x="210" y="408" text-anchor="middle" font-size="11" fill="#555">Redis Streams</text>
    <text x="210" y="424" text-anchor="middle" font-size="11" fill="#555">35 consumer workers</text>
  </g>

  <g>
    <rect x="350" y="360" width="160" height="80" fill="#ffffff" stroke="#111111" stroke-width="1.2"/>
    <text x="430" y="388" text-anchor="middle" font-size="14" font-weight="bold" fill="#111">VIII. RESOLVE</text>
    <text x="430" y="408" text-anchor="middle" font-size="11" fill="#555">Agentic name to URL</text>
    <text x="430" y="424" text-anchor="middle" font-size="11" fill="#555">Schema org plus LLM</text>
  </g>

  <g>
    <rect x="560" y="360" width="180" height="80" fill="#ffffff" stroke="#111111" stroke-width="1.2"/>
    <text x="650" y="388" text-anchor="middle" font-size="14" font-weight="bold" fill="#111">IX. ENRICH</text>
    <text x="650" y="408" text-anchor="middle" font-size="11" fill="#555">whois dns sitemap</text>
    <text x="650" y="424" text-anchor="middle" font-size="11" fill="#555">Wayback plus emails</text>
  </g>

  <g>
    <rect x="790" y="360" width="160" height="80" fill="#ffffff" stroke="#111111" stroke-width="1.2"/>
    <text x="870" y="388" text-anchor="middle" font-size="14" font-weight="bold" fill="#111">X. TRANSLATE</text>
    <text x="870" y="408" text-anchor="middle" font-size="11" fill="#555">EN to ID via Mistral</text>
    <text x="870" y="424" text-anchor="middle" font-size="11" fill="#555">qwen3-vl:30b vision</text>
  </g>

  <g>
    <rect x="1000" y="360" width="170" height="80" fill="url(#goldGrad)" stroke="#111111" stroke-width="1.2"/>
    <text x="1085" y="388" text-anchor="middle" font-size="14" font-weight="bold" fill="#111">XI. PERSIST</text>
    <text x="1085" y="408" text-anchor="middle" font-size="11" fill="#222">Postgres source truth</text>
    <text x="1085" y="424" text-anchor="middle" font-size="11" fill="#222">JSON audit trail</text>
  </g>

  <line x1="300" y1="400" x2="348" y2="400" stroke="#111" stroke-width="1.4" marker-end="url(#arrow)"/>
  <line x1="510" y1="400" x2="558" y2="400" stroke="#111" stroke-width="1.4" marker-end="url(#arrow)"/>
  <line x1="740" y1="400" x2="788" y2="400" stroke="#111" stroke-width="1.4" marker-end="url(#arrow)"/>
  <line x1="950" y1="400" x2="998" y2="400" stroke="#111" stroke-width="1.4" marker-end="url(#arrow)"/>

  <path d="M 945 200 Q 945 280 210 280 Q 210 320 210 358" fill="none" stroke="#111" stroke-width="1.4" marker-end="url(#arrow)"/>
  <text x="540" y="305" text-anchor="middle" font-size="11" font-style="italic" fill="#444">only NEW vendors enter queue</text>

  <g>
    <rect x="120" y="500" width="1050" height="180" fill="#ffffff" stroke="#111111" stroke-width="0.8"/>
    <text x="645" y="528" text-anchor="middle" font-size="14" font-weight="bold" fill="#111" letter-spacing="2">INFRASTRUCTURE LAYER</text>
    <line x1="200" y1="540" x2="1090" y2="540" stroke="#111111" stroke-width="0.3"/>

    <g font-size="11" fill="#222">
      <text x="160" y="565" font-weight="bold" fill="#111">Compute</text>
      <text x="160" y="582">Ollama LAN 10.83.81.246</text>
      <text x="160" y="598">qwen3.6 plus mistral plus gpt-oss</text>
      <text x="160" y="614">Total VRAM ~116 GB</text>

      <text x="360" y="565" font-weight="bold" fill="#111">Storage</text>
      <text x="360" y="582">Postgres autocrawl</text>
      <text x="360" y="598">Chroma vector store</text>
      <text x="360" y="614">Redis Streams plus locks</text>

      <text x="560" y="565" font-weight="bold" fill="#111">Search</text>
      <text x="560" y="582">SearXNG self host</text>
      <text x="560" y="598">OpenSERP yandex bing google</text>
      <text x="560" y="614">Wikipedia REST direct</text>

      <text x="760" y="565" font-weight="bold" fill="#111">Browser</text>
      <text x="760" y="582">Playwright pool</text>
      <text x="760" y="598">Crawl4AI ladder</text>
      <text x="760" y="614">FlareSolverr CF bypass</text>

      <text x="950" y="565" font-weight="bold" fill="#111">Observability</text>
      <text x="950" y="582">Prometheus plus Grafana</text>
      <text x="950" y="598">Langfuse LLM trace</text>
      <text x="950" y="614">structlog jsonl daily</text>
    </g>

    <line x1="200" y1="635" x2="1090" y2="635" stroke="#111111" stroke-width="0.3"/>
    <text x="645" y="660" text-anchor="middle" font-size="12" font-style="italic" fill="#bf3a2a">Self healing watchdog Windows Task Scheduler plus auto pipeline recovery</text>
  </g>

  <text x="600" y="704" text-anchor="middle" font-size="10" fill="#888" letter-spacing="2">DRAWN IN PLAIN SVG. NO RUNTIME DEPS. RENDERS ANYWHERE GITHUB DOES.</text>
</svg>
